<svg
        t="1749110035243"
        class="icon"
        viewBox="0 0 1024 1024"
        version="1.1"
        xmlns="http://www.w3.org/2000/svg"
        p-id="5347"
        width="24"
        height="24"
      >
        <path
          d="M404.032 792a84.032 84.032 0 1 1 0 168 84.032 84.032 0 0 1 0-168z m280 0a84.032 84.032 0 1 1 0 168 84.032 84.032 0 0 1 0-168zM403.904 549.312a84.032 84.032 0 1 1 0 168 84.032 84.032 0 0 1 0-168z m280 0a84.032 84.032 0 1 1 0 168 84.032 84.032 0 0 1 0-168zM404.096 306.688a83.968 83.968 0 1 1 0 168 83.968 83.968 0 0 1 0-168z m280 0a84.032 84.032 0 1 1 0 168 84.032 84.032 0 0 1 0-168zM403.904 64a84.032 84.032 0 1 1 0 168 84.032 84.032 0 0 1 0-168z m280 0a84.032 84.032 0 1 1 0 168 84.032 84.032 0 0 1 0-168z"
          fill="#707070"
          p-id="5348"
        ></path>
      </svg>