<?xml version="1.0" standalone="no"?><!DOCTYPE svg PUBLIC "-//W3C//DTD SVG 1.1//EN" "http://www.w3.org/Graphics/SVG/1.1/DTD/svg11.dtd"><svg t="1715927410505" class="icon" viewBox="0 0 1024 1024" version="1.1" xmlns="http://www.w3.org/2000/svg" p-id="3260" xmlns:xlink="http://www.w3.org/1999/xlink" width="200" height="200"><path d="M919.22 876.82L703.05 666.48c52.14-60.24 83.68-138.79 83.68-224.71 0-189.73-153.81-343.54-343.54-343.54-189.73 0-343.54 153.81-343.54 343.54s153.81 343.54 343.54 343.54c82.2 0 157.65-28.89 216.78-77.04l217.42 211.55a29.92 29.92 0 0 0 20.92 8.5c7.82 0 15.62-3.04 21.5-9.08 11.54-11.87 11.28-30.86-0.59-42.42zM553.53 703.05c-34.92 14.77-72.05 22.26-110.35 22.26s-75.43-7.49-110.35-22.26c-33.76-14.28-64.09-34.73-90.15-60.79-26.06-26.06-46.51-56.39-60.79-90.15-14.77-34.92-22.26-72.05-22.26-110.35s7.49-75.43 22.26-110.35c14.28-33.76 34.73-64.09 60.79-90.15 26.06-26.06 56.39-46.51 90.15-60.79 34.92-14.77 72.05-22.26 110.35-22.26s75.43 7.49 110.35 22.26c33.76 14.28 64.09 34.73 90.15 60.79 26.06 26.06 46.51 56.39 60.79 90.15 14.77 34.92 22.26 72.05 22.26 110.35s-7.49 75.43-22.26 110.35c-14.28 33.76-34.73 64.09-60.79 90.15-26.06 26.06-56.39 46.52-90.15 60.79z" p-id="3261"></path></svg>